<svg xmlns="http://www.w3.org/2000/svg" viewBox="0 0 162.8 131.86">
    <defs>
        <style>.cls-1{fill:#d6fa02;}.cls-2{fill:#fff;}</style>
    </defs>
    <g id="Capa_2">
        <g id="Capa_1-2">
            <path class="cls-1"
                  d="M162.4,111.64c0,12.62-5.92,18.71-18.57,19.22-2.13.09-4.26.27-6.39.27q-27.89,0-55.77,0H22.42c-4.48,0-9-.2-13.05-2.23-5.59-2.77-9.09-7-9.08-13.55,0-26.63-.07-53.28.05-79.93,0-9,6.37-14.94,15.57-15,19.36-.08,38.73-.13,58.09,0,4.44,0,7.33-1.11,10-5C93.9,1.06,94.1,1.19,112,1.19c10.45,0,20.91-.09,31.36,0,13.46.15,19,5.76,19,19Q162.42,65.92,162.4,111.64Z"/>
            <g id="U6PyXu">
                <path class="cls-2"
                      d="M81.74,131.85q-29.76,0-59.5,0c-4.5,0-9-.19-13.1-2.25C3.52,126.78,0,122.49,0,115.86c0-27-.07-54.06,0-81.08,0-9.1,6.4-15.15,15.64-15.19,19.45-.08,38.89-.12,58.34,0,4.45,0,7.35-1.14,10-5.1C94-.09,94.21,0,112.2,0c10.5,0,21-.1,31.5,0,13.52.15,19.09,5.84,19.1,19.26q0,46.37,0,92.74c0,12.81-5.94,19-18.65,19.51-2.13.08-4.27.26-6.41.26Q109.74,131.86,81.74,131.85Zm-.3-2.55c20.8,0,41.6.09,62.4,0,10.73-.06,16.27-5.61,16.29-16.11q.09-47.82,0-95.65c0-10.09-4.54-14.67-14.54-14.77-11.08-.11-22.26.88-33.22-.28C99.85,1.13,91,4.76,85.71,16.33c-2,4.27-5.5,5.22-10.06,5.17-18.47-.22-36.94-.11-55.41-.08-13.47,0-18.35,4.82-18.37,18.16q0,35.3,0,70.57c0,14,5.05,19.11,18.9,19.15C41,129.35,61.22,129.31,81.44,129.3Z"/>
            </g>
        </g>
    </g>
</svg>