<svg xmlns="http://www.w3.org/2000/svg" viewBox="0 0 162.8 131.86">
    <defs>
        <style>.cls-1{fill:#9600f1;}.cls-2{fill:#fff;}</style>
    </defs>
    <g id="Capa_2">
        <g id="Capa_1-2">
            <path class="cls-1"
                  d="M162,111.42c0,12.62-5.85,18.71-18.35,19.22-2.1.09-4.21.27-6.3.27q-27.56,0-55.1,0H23.73c-4.42,0-8.85-.2-12.89-2.23-5.52-2.77-9-7-9-13.55,0-26.64-.07-53.29,0-79.93,0-9,6.3-14.94,15.39-15,19.13-.08,38.26-.13,57.39,0,4.38,0,7.24-1.11,9.89-5C94.35.84,94.55,1,112.25,1c10.32,0,20.66-.09,31,0C156.53,1.13,162,6.74,162,20Q162,65.71,162,111.42Z"/>
            <g id="U6PyXu">
                <path class="cls-2"
                      d="M81.74,131.85q-29.76,0-59.5,0c-4.5,0-9-.19-13.1-2.25C3.52,126.78,0,122.49,0,115.86c0-27-.07-54.06,0-81.08,0-9.1,6.4-15.15,15.64-15.19,19.45-.08,38.89-.12,58.34,0,4.45,0,7.35-1.14,10-5.1C94-.09,94.21,0,112.2,0c10.5,0,21-.1,31.5,0,13.52.15,19.09,5.84,19.1,19.26q0,46.37,0,92.74c0,12.81-5.94,19-18.65,19.51-2.13.08-4.27.26-6.41.26Q109.74,131.86,81.74,131.85Zm-.3-2.55c20.8,0,41.6.09,62.4,0,10.73-.06,16.27-5.61,16.29-16.11q.09-47.82,0-95.65c0-10.09-4.54-14.67-14.54-14.77-11.08-.11-22.26.88-33.22-.28C99.85,1.13,91,4.76,85.71,16.33c-2,4.27-5.5,5.22-10.06,5.17-18.47-.22-36.94-.11-55.41-.08-13.47,0-18.35,4.82-18.37,18.16q0,35.3,0,70.57c0,14,5.05,19.11,18.9,19.15C41,129.35,61.22,129.31,81.44,129.3Z"/>
            </g>
        </g>
    </g>
</svg>