<svg xmlns="http://www.w3.org/2000/svg" viewBox="0 0 162.8 131.85">
    <defs>
        <style>.cls-1{fill:#0af3ff;}.cls-2{fill:#fff;}</style>
    </defs>
    <g id="Capa_2">
        <g id="Capa_1-2">
            <path class="cls-1"
                  d="M162.79,19.31q0,46.38,0,92.75c0,12.8-5.95,19-18.65,19.5-2.14.09-4.28.27-6.41.27q-28,0-56,0H22.23c-4.49,0-9-.2-13.1-2.26C3.52,126.78,0,122.49,0,115.85c0-27-.07-54,0-81.08,0-9.09,6.4-15.15,15.64-15.18,19.44-.08,38.89-.13,58.33,0,4.45,0,7.36-1.13,10-5.09C94-.1,94.21,0,112.19,0c10.5,0,21-.09,31.5,0C157.21.2,162.79,5.89,162.79,19.31Z"/>
            <g id="U6PyXu">
                <path class="cls-2"
                      d="M143.69.05c-10.5-.11-21,0-31.5,0C94.21,0,94-.1,84.08,14.53c-2.69,4-5.6,5.13-10,5.09-19.44-.16-38.89-.11-58.33,0C6.46,19.62.1,25.68.06,34.77c-.12,27,0,54.06,0,81.08,0,6.64,3.51,10.93,9.12,13.74,4.11,2.06,8.61,2.26,13.1,2.26h59.5q28,0,56,0c2.13,0,4.27-.18,6.41-.27,12.7-.52,18.64-6.7,18.65-19.5q0-46.38,0-92.75C162.79,5.89,157.21.2,143.69.05Zm16.43,113.09c0,10.5-5.55,16-16.28,16.12-20.81.12-41.61,0-62.41,0q-30.33,0-60.66,0c-13.85,0-18.88-5.14-18.9-19.14q0-35.29,0-70.57c0-13.35,4.9-18.15,18.37-18.17,18.47,0,36.94-.14,55.4.08,4.56.06,8.09-.89,10.06-5.17C91,4.76,99.84,1.13,112.37,2.45c11,1.16,22.14.17,33.22.27,10,.1,14.52,4.68,14.53,14.77Q160.21,65.33,160.12,113.14Z"/>
            </g>
        </g>
    </g>
</svg>