<svg xmlns="http://www.w3.org/2000/svg" viewBox="0 0 199.44 176.78"><defs><style>.cls-1{fill:#d4f91e;stroke:#d4f91e;stroke-miterlimit:10;stroke-width:4px;}</style></defs><g id="Capa_2" data-name="Capa 2"><g id="art_station" data-name="art station"><path class="cls-1" d="M178,172.78,79.84,2.09c12.35,0,24-.25,35.55.1,6.68.2,11.76,3.91,15.07,9.69q32.28,56.33,64.42,112.7c3.6,6.32,3.3,13-.23,19.24C189.35,153.28,183.82,162.63,178,172.78Z"/><path class="cls-1" d="M3.47,134h14.7c33.73,0,67.46.05,101.19-.08,3.32,0,5.07,1,6.67,3.92,6.43,11.57,13.15,23,19.73,34.39-1.12,1.48-2.5.83-3.65.83-33.89,0-67.78-.07-101.67.1-10,.05-17-3.73-21.74-12.66C14.11,151.75,8.9,143.35,3.47,134Z"/><path class="cls-1" d="M107.59,106H84.87q-30.69,0-61.37,0c-2.48,0-4.22.1-2.29-3.22Q42,67.05,62.66,31.16c.13-.23.49-.34,1.21-.81C78.34,55.39,92.78,80.4,107.59,106Z"/></g></g></svg>