<svg xmlns="http://www.w3.org/2000/svg" viewBox="0 0 217.78 170.04"><defs><style>.cls-1{fill:#0bf2fe;stroke:#0bf2fe;stroke-miterlimit:10;stroke-width:4px;}</style></defs><g id="Capa_2" data-name="Capa 2"><g id="discord"><path class="cls-1" d="M183.1,16.07A174.38,174.38,0,0,0,139,2.21c-1.9,3.44-4.12,8.06-5.65,11.73a162.14,162.14,0,0,0-48.88,0A125.86,125.86,0,0,0,78.74,2.21,173.75,173.75,0,0,0,34.6,16.11C6.69,58.29-.88,99.42,2.91,140A176.49,176.49,0,0,0,57,167.69a135.09,135.09,0,0,0,11.59-19.08,114.45,114.45,0,0,1-18.25-8.88c1.53-1.14,3-2.32,4.48-3.54,35.17,16.45,73.39,16.45,108.15,0,1.46,1.22,3,2.4,4.47,3.54a113.52,113.52,0,0,1-18.28,8.89,134.16,134.16,0,0,0,11.59,19.08A176,176,0,0,0,214.88,140C219.31,93,207.29,52.21,183.1,16.07ZM73.38,115c-10.56,0-19.22-9.86-19.22-21.86s8.47-21.88,19.22-21.88,19.4,9.86,19.22,21.88C92.61,105.17,84.12,115,73.38,115Zm71,0c-10.56,0-19.22-9.86-19.22-21.86s8.48-21.88,19.22-21.88,19.41,9.86,19.22,21.88C163.62,105.17,155.15,115,144.4,115Z"/></g></g></svg>