<svg xmlns="http://www.w3.org/2000/svg" viewBox="0 0 172.93 173.93"><defs><style>.cls-1{fill:#e50fec;stroke:#e50fec;stroke-miterlimit:10;stroke-width:3.93px;}</style></defs><g id="Capa_2" data-name="Capa 2"><g id="instagram"><path class="cls-1" d="M123.81,2H49.13A47.15,47.15,0,0,0,2,49.13v75.68A47.15,47.15,0,0,0,49.13,172h74.68A47.15,47.15,0,0,0,171,124.81V49.13A47.15,47.15,0,0,0,123.81,2ZM86.33,130.37A43.46,43.46,0,1,1,130,87.15,43.24,43.24,0,0,1,86.33,130.37Zm45.54-77.85A11.17,11.17,0,0,1,121.05,41.7a10.91,10.91,0,0,1,11-11,10.71,10.71,0,0,1,10.91,10.91A10.9,10.9,0,0,1,131.87,52.52Z"/></g></g></svg>