<svg xmlns="http://www.w3.org/2000/svg" viewBox="0 0 156.68 178.62"><defs><style>.cls-1{fill:none;stroke:#9600f1;stroke-miterlimit:10;stroke-width:4px;}</style></defs><g id="Capa_2" data-name="Capa 2"><g id="tik_tok" data-name="tik tok"><path class="cls-1" d="M154.63,72.65c0,3.33-2.3,5.4-5.75,5.35A70.64,70.64,0,0,1,118,70.6c-.49-.24-1-.46-1.75-.81V72c0,16.48.13,33-.08,49.45-.34,26.06-20.61,49.63-46.32,54.17-2.17.39-4.35.69-6.53,1H54.8c-3-.54-6-1-9-1.64A57.12,57.12,0,0,1,41.65,65a54,54,0,0,1,17.1-2.72c3.17,0,5.42,1.94,5.45,5.07q.14,13.73,0,27.45c0,3.1-2.21,4.94-5.49,5.08a19.54,19.54,0,1,0,19.23,24.54,25.27,25.27,0,0,0,.69-6.06q.06-55,0-110C78.65,3.81,80.45,2,85,2h25.41c3.73,0,5.69,1.9,5.82,5.59.59,16.87,12.2,29.93,28.9,32.47,1.46.22,3,.18,4.41.31,3.1.27,5.05,2.24,5.07,5.34Q154.7,59.18,154.63,72.65Z"/></g></g></svg>